# xmcd CD database file
# Generated: Sat Nov 10 21:01:18 2001 by KSCD
# 
# Track frame offsets:
#       150
#       9077
#       21923
#       39335
#       54583
#       75898
#       95873
#       114313
#       125238
#       140116
#       160524
#       176971
#       209646
#
# Disc length: 3116 seconds
#
# Revision: 3
# Processed by: cddbd v1.4PL0 Copyright (c) Steve Scherf et al.
# Submitted via: Kscd 1.3.0
#
DISCID=ad0c2a0d
DTITLE=Siniestro Total - La Historia del Blues
DYEAR=1900
DGENRE=
TTITLE0=La rabia de vivir
TTITLE1=Llueve
TTITLE2=Coleguita
TTITLE3=Vuelvo hacia el hogar
TTITLE4=¿A quién vas a culpar?
TTITLE5=Bajo sus propias pistolas
TTITLE6=Llevadme a mi Texas nata
TTITLE7=Inundacion
TTITLE8=El enanito y las tres blanca nueces
TTITLE9=Ni si ni no
TTITLE10=Mata al malo y pilla a la chica
TTITLE11=Dios tiene un plan
TTITLE12=Pista 13
EXTD=
EXTT0=
EXTT1=
EXTT2=
EXTT3=
EXTT4=
EXTT5=
EXTT6=
EXTT7=
EXTT8=
EXTT9=
EXTT10=
EXTT11=
EXTT12=
PLAYORDER=
